<?xml version="1.0" encoding="UTF-8" standalone="no"?>
<svg xmlns:ffdec="https://www.free-decompiler.com/flash" xmlns:xlink="http://www.w3.org/1999/xlink" ffdec:objectType="shape" height="14.3px" width="94.45px" xmlns="http://www.w3.org/2000/svg">
  <g transform="matrix(1.0, 0.0, 0.0, 1.0, -6.8, -6.6)">
    <path d="M82.5 9.4 L80.8 10.1 80.25 8.9 Q79.85 8.45 79.35 8.4 L79.25 8.4 Q78.65 8.4 78.2 9.15 77.7 9.9 77.7 11.7 L77.7 15.05 Q77.7 17.1 78.2 18.1 78.65 19.1 79.25 19.2 L79.35 19.2 Q79.9 19.2 80.35 18.4 80.8 17.65 80.8 16.2 L80.8 14.8 79.25 14.8 79.25 13.2 82.65 13.2 82.65 15.75 Q82.65 18.35 81.75 19.55 80.8 20.75 79.1 20.75 77.4 20.75 76.55 19.0 75.7 17.3 75.7 14.1 L75.7 12.1 Q75.7 9.1 76.8 7.85 77.85 6.6 79.15 6.6 80.3 6.6 81.3 7.4 82.25 8.15 82.5 9.4 M89.35 19.75 Q89.35 20.35 89.0 20.6 L88.15 20.9 87.35 20.65 Q86.95 20.35 86.95 19.75 86.95 19.25 87.3 18.95 87.7 18.65 88.15 18.65 L88.2 18.65 Q88.65 18.65 89.0 18.9 89.35 19.2 89.35 19.75 M94.15 20.9 L93.3 20.65 Q92.9 20.35 92.9 19.75 92.9 19.25 93.25 18.95 93.65 18.65 94.1 18.65 L94.15 18.65 Q94.6 18.65 94.95 18.9 95.3 19.2 95.3 19.75 95.3 20.35 94.95 20.6 L94.15 20.9 M98.85 19.75 Q98.85 19.25 99.2 18.95 99.6 18.65 100.05 18.65 L100.1 18.65 100.9 18.9 Q101.25 19.2 101.25 19.75 101.25 20.35 100.9 20.6 L100.1 20.9 99.25 20.65 Q98.85 20.35 98.85 19.75 M67.35 6.85 L70.45 17.2 70.05 6.85 71.85 6.85 71.85 20.45 70.3 20.45 66.9 9.8 67.35 20.45 65.5 20.45 65.5 6.85 67.35 6.85 M61.25 20.45 L59.55 20.45 59.55 6.85 61.25 6.85 61.25 20.45 M54.6 8.4 L54.6 20.45 52.75 20.45 52.75 8.4 50.6 8.4 50.6 6.85 56.55 6.85 56.55 8.4 54.6 8.4 M46.35 6.85 L49.3 20.45 47.35 20.45 46.9 17.75 44.2 17.75 43.8 20.45 41.95 20.45 44.9 6.85 46.35 6.85 M46.65 16.2 L45.65 8.8 44.5 16.2 46.65 16.2 M32.05 8.4 L32.05 20.45 30.2 20.45 30.2 8.4 28.05 8.4 28.05 6.85 34.0 6.85 34.0 8.4 32.05 8.4 M38.7 6.85 L38.7 20.45 37.0 20.45 37.0 6.85 38.7 6.85 M24.95 6.85 L24.95 20.45 23.25 20.45 23.25 6.85 24.95 6.85 M14.6 6.85 L17.7 17.2 17.3 6.85 19.1 6.85 19.1 20.45 17.55 20.45 14.15 9.8 14.6 20.45 12.75 20.45 12.75 6.85 14.6 6.85 M8.5 6.85 L8.5 20.45 6.8 20.45 6.8 6.85 8.5 6.85" fill="#ffffff" fill-rule="evenodd" stroke="none"/>
  </g>
</svg>
