<?xml version="1.0" encoding="UTF-8" standalone="no"?>
<svg xmlns:ffdec="https://www.free-decompiler.com/flash" xmlns:xlink="http://www.w3.org/1999/xlink" ffdec:objectType="shape" height="30.0px" width="30.05px" xmlns="http://www.w3.org/2000/svg">
  <g transform="matrix(1.0, 0.0, 0.0, 1.0, 15.0, 15.0)">
    <path d="M2.7 -12.0 Q5.7 -8.95 5.7 -4.65 5.7 -1.15 3.55 1.7 L4.95 3.1 5.1 2.95 Q5.5 2.6 6.05 2.6 6.6 2.6 6.95 2.95 L14.65 10.65 Q15.05 11.05 15.05 11.55 15.05 12.1 14.65 12.45 L12.5 14.6 Q12.15 15.0 11.6 15.0 11.05 15.0 10.65 14.6 L2.95 6.9 Q2.6 6.55 2.6 6.0 2.6 5.5 2.95 5.1 L3.1 4.9 1.7 3.5 Q-1.15 5.7 -4.65 5.7 -8.9 5.7 -11.95 2.65 -15.0 -0.35 -15.0 -4.65 -15.0 -8.95 -11.95 -12.0 -8.95 -15.0 -4.65 -15.0 -0.35 -15.0 2.7 -12.0 M2.5 -4.65 Q2.5 -7.6 0.4 -9.7 -1.7 -11.8 -4.65 -11.8 -7.6 -11.8 -9.65 -9.7 -11.75 -7.6 -11.75 -4.65 -11.75 -1.7 -9.65 0.35 -7.55 2.45 -4.65 2.45 -1.7 2.45 0.4 0.35 2.5 -1.7 2.5 -4.65" fill="#ffffff" fill-rule="evenodd" stroke="none"/>
  </g>
</svg>
